<?xml version="1.0" encoding="utf-8"?>
<!-- Generator: Adobe Illustrator 19.0.0, SVG Export Plug-In . SVG Version: 6.00 Build 0)  -->
<svg version="1.1" id="cg-0" xmlns:svgjs="http://svgjs.dev/svgjs"
	 xmlns="http://www.w3.org/2000/svg" xmlns:xlink="http://www.w3.org/1999/xlink" x="0px" y="0px" viewBox="372.8 386.8 1237.2 198"
	 style="enable-background:new 372.8 386.8 1237.2 198;" xml:space="preserve">
<style type="text/css">
	.st0{fill:#7323CD;}
	.st1{display:none;fill:none;}
</style>
<g id="textblocktransform">
	<g>
		<g transform="matrix(1,0,0,1,0,0)">
			<path id="text-0" class="st0" d="M623.6,450.9h74c1.4,4.9,2.8,9.9,4.2,14.8c1.4,5,2.8,9.9,4.2,14.9c1.4,5,2.8,9.9,4.2,14.9
				c1.4,5,2.8,9.9,4.2,14.9c1.4,5,2.8,9.9,4.2,14.9c1.4,5,2.8,10,4.2,15l0,0h-53.2l-2-11.7c-0.3,0-0.6,0-0.8,0c-0.2,0-0.5,0-0.8,0
				l0,0H653c-0.2,0-0.5,0-0.7,0c-0.2,0-0.5,0-0.7,0l0,0l-2,11.7h-50.9c1.4-5,2.8-10,4.2-15c1.4-5,2.8-9.9,4.2-14.9
				c1.4-5,2.8-9.9,4.2-14.9c1.4-5,2.8-9.9,4.2-14.9c1.4-5,2.8-9.9,4.2-14.9C620.9,460.7,622.3,455.8,623.6,450.9L623.6,450.9z
				 M653,520.1L653,520.1c0,0.1,0,0.1,0,0.1s0,0,0.1,0l0,0h13.1c0.1,0,0.1,0,0.1-0.1c0,0,0,0,0,0l0,0l0,0c0,0-0.2-1-0.5-2.9
				c-0.3-1.9-0.7-4.4-1.2-7.4c-0.5-3-1.1-6.2-1.6-9.5c-0.6-3.4-1.1-6.6-1.5-9.6c-0.5-3-0.9-5.5-1.2-7.4c-0.4-1.9-0.5-2.9-0.5-2.9
				l0,0c0,0,0,0,0,0c0,0-0.1,0-0.1,0l0,0c0,0-0.2,1-0.5,2.9s-0.7,4.4-1.2,7.4c-0.5,3-1.1,6.2-1.6,9.6c-0.6,3.4-1.1,6.6-1.5,9.5
				c-0.5,3-0.9,5.5-1.2,7.4C653.1,519.2,653,520.1,653,520.1z M769.1,450.9h-49.5c0,4,0,8,0,12.2c0,4.2,0,8.4,0,12.6
				c0,4.2,0,8.4,0,12.6l0,0c0,3.2,0,6.4,0,9.6c0,3.2,0,6.4,0,9.4l0,0c0,4.8,1.1,9.2,3.2,13.2c2.1,3.9,5.1,7.4,8.9,10.3
				c3.8,2.9,8.2,5.4,13.1,7.3c5,2,10.3,3.5,16,4.4c5.7,1,11.4,1.4,17.2,1.4l0,0c7.3,0,14.4-0.8,21.4-2.3c7-1.5,13.2-3.8,18.8-6.9
				c5.6-3.1,10-6.9,13.3-11.4c3.3-4.6,5-9.9,5-16l0,0c0-6,0-12.3,0-18.7c0-6.4,0-12.8,0-19.1c0-6.4,0-12.6,0-18.6l0,0H787
				c0,4.4,0,8.6,0,12.6s0,8,0,11.8s0,7.6,0,11.3c0,3.7,0,7.5,0,11.3l0,0c0,2.3-0.9,4.1-2.7,5.2c-1.8,1.2-3.9,1.8-6.2,1.8l0,0
				c-1.1,0-2.2-0.2-3.3-0.5c-1.1-0.3-2-0.8-2.9-1.4c-0.8-0.6-1.5-1.3-2-2.2c-0.5-0.9-0.8-1.9-0.8-3.1l0,0c0-7.6,0-15.1,0-22.7
				S769.1,459.5,769.1,450.9L769.1,450.9z M840.4,450.9h107.4v36.2h-28.7c0,0,0,0-0.1,0c0,0-0.1,0.1-0.1,0.1s0,0,0,0.1l0,0
				c0,3.5,0,7,0,10.5c0,3.5,0,7.1,0,10.6c0,3.5,0,7.1,0,10.6c0,3.5,0,7.1,0,10.6c0,3.5,0,7,0,10.5l0,0h-49.5c0-5.9,0-11.8,0-17.6
				s0-11.8,0-17.6c0-5.9,0-11.8,0-17.6l0,0c0,0,0,0,0-0.1c0,0,0-0.1,0-0.1c0,0-0.1,0-0.1,0c0,0,0,0,0,0l0,0h-28.7V450.9z
				 M1016.7,447.3L1016.7,447.3c-7.3,0-14,0.5-20.1,1.6c-6.1,1.1-11.6,2.6-16.4,4.6c-4.8,2-9.1,4.5-12.7,7.3c-3.6,2.8-6.6,6-9.1,9.6
				c-2.4,3.6-4.3,7.5-5.5,11.7c-1.2,4.2-1.9,8.7-1.9,13.4l0,0c0,3.6,0.4,7.1,1.1,10.6c0.7,3.5,1.9,6.8,3.6,10c1.6,3.2,3.7,6.2,6.2,9
				c2.5,2.8,5.5,5.4,8.9,7.7c3.4,2.3,7.4,4.3,12,5.9c4.5,1.6,9.6,2.9,15.2,3.8c5.6,0.9,11.8,1.4,18.5,1.4l0,0c9.5,0,17.8-0.9,25-2.6
				c7.2-1.7,13.4-4.1,18.5-7.2c5.2-3.1,9.4-6.6,12.6-10.7c3.3-4.1,5.6-8.5,7.2-13.2c1.5-4.7,2.3-9.6,2.3-14.7l0,0
				c0-9.4-2.4-17.7-7.3-24.9c-4.8-7.2-12.1-12.9-21.8-17C1043.5,449.4,1031.3,447.3,1016.7,447.3z M1016.8,485.2L1016.8,485.2
				c2.8,0,5.1,0.3,7,1s3.4,1.4,4.5,2.4c1.1,1,1.9,2.1,2.5,3.3c0.5,1.2,0.8,2.4,0.8,3.6l0,0c0,1-0.2,2-0.5,3c-0.3,1-0.9,2-1.6,2.9
				c-0.8,0.9-1.7,1.7-2.9,2.4c-1.2,0.7-2.6,1.2-4.2,1.6c-1.6,0.4-3.5,0.6-5.7,0.6l0,0c-3.7,0-6.6-0.5-8.8-1.5
				c-2.2-1-3.8-2.3-4.8-3.9c-1-1.6-1.4-3.2-1.4-4.9l0,0c0-1.3,0.3-2.5,0.8-3.8c0.5-1.2,1.3-2.3,2.5-3.3c1.1-1,2.7-1.8,4.6-2.4
				C1011.6,485.5,1014,485.2,1016.8,485.2z M1169.4,450.9h60.1c0,6,0,11.9,0,17.9s0,11.9,0,17.9c0,6,0,11.9,0,17.9s0,11.9,0,17.9
				c0,6,0,11.9,0,17.9l0,0h-45.9c0-8.3,0-16.5,0-24.8c0-8.3,0-16.5,0-24.8l0,0c0,0,0,0,0-0.1c0,0,0,0-0.1,0c0,0-0.1,0-0.1,0
				c0,0-0.1,0-0.1,0c0,0,0,0.1,0,0.1l0,0l-11.7,49.6h-30.4c-2-8.3-3.9-16.5-5.8-24.7s-3.9-16.4-5.8-24.6l0,0c0,0,0,0,0-0.1
				c0,0,0,0-0.1,0c0,0,0,0,0,0s0,0,0,0c0,0-0.1,0-0.1,0c0,0,0,0.1,0,0.1l0,0c0,8.2,0,16.4,0,24.6s0,16.4,0,24.7l0,0h-43.5
				c0-6,0-11.9,0-18c0-6,0-12,0-18c0-6,0-12,0-18c0-6,0-12,0-17.9l0,0c0-2.9,0-5.9,0-8.8c0-2.9,0-5.8,0-8.8l0,0h63.5
				c1.2,4.9,2.3,9.8,3.5,14.7c1.1,4.9,2.2,9.8,3.4,14.7c1.1,4.9,2.3,9.9,3.4,14.8l0,0c0,0.1,0,0.1,0,0.2c0,0,0.1,0,0.1,0
				c0,0,0-0.1,0-0.2l0,0L1169.4,450.9z M1298.6,447.3L1298.6,447.3c-7.3,0-14,0.5-20.1,1.6c-6.1,1.1-11.5,2.6-16.4,4.6
				c-4.8,2-9.1,4.5-12.7,7.3c-3.6,2.8-6.6,6-9.1,9.6c-2.4,3.6-4.2,7.5-5.5,11.7c-1.2,4.2-1.8,8.7-1.8,13.4l0,0
				c0,3.6,0.4,7.1,1.1,10.6c0.8,3.5,2,6.8,3.6,10c1.6,3.2,3.7,6.2,6.2,9c2.5,2.8,5.5,5.4,8.9,7.7c3.5,2.3,7.5,4.3,12,5.9
				c4.5,1.6,9.6,2.9,15.2,3.8c5.6,0.9,11.8,1.4,18.6,1.4l0,0c9.5,0,17.8-0.9,25-2.6c7.2-1.7,13.4-4.1,18.6-7.2
				c5.2-3.1,9.4-6.6,12.6-10.7c3.3-4.1,5.6-8.5,7.2-13.2c1.5-4.7,2.3-9.6,2.3-14.7l0,0c0-9.4-2.4-17.7-7.3-24.9
				c-4.8-7.2-12.1-12.9-21.8-17C1325.4,449.4,1313.3,447.3,1298.6,447.3z M1298.7,485.2L1298.7,485.2c2.8,0,5.1,0.3,7,1
				c1.9,0.6,3.4,1.4,4.5,2.4c1.1,1,1.9,2.1,2.4,3.3c0.5,1.2,0.8,2.4,0.8,3.6l0,0c0,1-0.2,2-0.5,3c-0.3,1-0.9,2-1.6,2.9
				c-0.7,0.9-1.7,1.7-2.9,2.4c-1.1,0.7-2.5,1.2-4.2,1.6c-1.6,0.4-3.5,0.6-5.7,0.6l0,0c-3.7,0-6.6-0.5-8.8-1.5
				c-2.2-1-3.8-2.3-4.8-3.9s-1.4-3.2-1.4-4.9l0,0c0-1.3,0.3-2.5,0.8-3.8c0.5-1.2,1.4-2.3,2.5-3.3c1.2-1,2.7-1.8,4.6-2.4
				C1293.6,485.5,1296,485.2,1298.7,485.2z M1367.8,450.9h71.1c7.5,0,14.1,0.8,19.8,2.4c5.8,1.6,10.7,3.9,14.9,6.7
				c4.1,2.9,7.5,6.2,10.1,9.9c2.6,3.8,4.6,7.8,5.8,12.1c1.3,4.3,1.9,8.7,1.9,13.1l0,0c0,5.6-1,11.1-3.1,16.5
				c-2,5.4-5.2,10.2-9.4,14.5c-4.3,4.3-9.7,7.7-16.3,10.3c-6.6,2.5-14.6,3.8-23.8,3.8l0,0h-71.1c0-5.1,0-10.2,0-15.2
				c0-5,0-10.1,0-15.1c0-5,0-10.1,0-15.1c0-5.1,0-10.1,0-15.2l0,0c0-4.8,0-9.6,0-14.4C1367.8,460.4,1367.8,455.6,1367.8,450.9
				L1367.8,450.9z M1429.3,485.2L1429.3,485.2h-14.2c0,0,0,0-0.1,0c0,0,0,0,0,0s0,0,0,0c0,0,0,0.1,0,0.2l0,0v20.3c0,0.1,0,0.1,0,0.2
				c0,0,0,0.1,0,0.1s0,0,0,0c0,0,0.1,0,0.1,0l0,0h14.4c1.8,0,3.3-0.3,4.7-0.8c1.4-0.6,2.6-1.3,3.5-2.3c0.9-1,1.7-2.1,2.2-3.3
				c0.5-1.3,0.8-2.6,0.8-3.9l0,0c0-1.9-0.5-3.7-1.4-5.2c-0.9-1.6-2.2-2.8-3.9-3.8C1433.8,485.7,1431.8,485.2,1429.3,485.2z
				 M1595.2,450.9v30h-51.9c-0.1,0-0.1,0-0.1,0l0,0l0,0v6.6c0,0.1,0,0.1,0,0.2c0,0,0,0.1,0,0.1s0,0,0.1,0c0,0,0,0,0,0l0,0h50.1v16.8
				h-50.1c0,0,0,0,0,0c0,0-0.1,0-0.1,0c0,0,0,0.1,0,0.2l0,0v6.7c0,0,0,0,0,0s0,0,0,0s0,0,0.1,0c0,0,0,0,0,0l0,0h52.6v28.9h-101
				c0-4.7,0-9.4,0-14.1c0-4.7,0-9.4,0-14.1c0-4.7,0-9.4,0-14.1c0-4.7,0-9.5,0-14.2c0-4.7,0-9.4,0-14.1l0,0c0-3.1,0-6.2,0-9.4
				c0-3.1,0-6.2,0-9.3l0,0H1595.2z"/>
		</g>
	</g>
</g>
<g>
	<path class="st0" d="M481,471.5c0-11.9-11.7-21.5-11.7-21.5s-11.7,9.6-11.7,21.5c0,11.9,5.3,17.6,11.7,17.6S481,483.4,481,471.5z"
		/>
	<path class="st0" d="M503.2,400.5h-67.8c-28.1,0-50.8,22.8-50.8,50.8v67.8c0,28.1,22.8,50.8,50.8,50.8h67.8
		c28.1,0,50.8-22.8,50.8-50.8v-67.8C554,423.2,531.2,400.5,503.2,400.5z M469.3,536c-28.1,0-50.8-22.8-50.8-50.8
		c0-28.1,22.8-50.8,50.8-50.8s50.8,22.8,50.8,50.8C520.1,513.3,497.3,536,469.3,536z"/>
	<path class="st0" d="M434.8,485.2c0,0-1.5,15.1,6.9,23.5c8.4,8.4,16.2,8.7,20.7,4.1c4.6-4.6,4.3-12.3-4.1-20.7
		C449.9,483.7,434.8,485.2,434.8,485.2z"/>
	<path class="st0" d="M480.3,492.1c-8.4,8.4-8.7,16.2-4.1,20.7c4.6,4.6,12.3,4.3,20.7-4.1c8.4-8.4,6.9-23.5,6.9-23.5
		S488.7,483.7,480.3,492.1z"/>
</g>
<rect x="598.6" y="255" class="st1" width="997.4" height="288.9"/>
</svg>
